<svg width="100" height="62" viewBox="0 0 100 62" fill="none" xmlns="http://www.w3.org/2000/svg">
<g clip-path="url(#clip0_2_2)">
<path d="M17.48 3.648V35.568C17.48 38.76 18.2653 41.2173 19.836 42.94C21.4067 44.6627 23.712 45.524 26.752 45.524C29.792 45.524 32.1227 44.6627 33.744 42.94C35.3653 41.2173 36.176 38.76 36.176 35.568V3.648H49.172V35.492C49.172 40.2547 48.1587 44.2827 46.132 47.576C44.1053 50.8693 41.3693 53.352 37.924 55.024C34.5293 56.696 30.7293 57.532 26.524 57.532C22.3187 57.532 18.544 56.7213 15.2 55.1C11.9067 53.428 9.29733 50.9453 7.372 47.652C5.44667 44.308 4.484 40.2547 4.484 35.492V3.648H17.48ZM77.6019 57.532C73.7006 57.532 70.2046 56.8987 67.1139 55.632C64.0233 54.3653 61.5406 52.4907 59.6659 50.008C57.8419 47.5253 56.8793 44.536 56.7779 41.04H70.6099C70.8126 43.016 71.4966 44.536 72.6619 45.6C73.8273 46.6133 75.3473 47.12 77.2219 47.12C79.1473 47.12 80.6673 46.6893 81.7819 45.828C82.8966 44.916 83.4539 43.6747 83.4539 42.104C83.4539 40.7867 82.9979 39.6973 82.0859 38.836C81.2246 37.9747 80.1353 37.2653 78.8179 36.708C77.5513 36.1507 75.7273 35.5173 73.3459 34.808C69.9006 33.744 67.0886 32.68 64.9099 31.616C62.7313 30.552 60.8566 28.9813 59.2859 26.904C57.7153 24.8267 56.9299 22.116 56.9299 18.772C56.9299 13.8067 58.7286 9.93067 62.3259 7.144C65.9233 4.30667 70.6099 2.888 76.3859 2.888C82.2633 2.888 87.0006 4.30667 90.5979 7.144C94.1953 9.93067 96.1206 13.832 96.3739 18.848H82.3139C82.2126 17.1253 81.5793 15.7827 80.4139 14.82C79.2486 13.8067 77.7539 13.3 75.9299 13.3C74.3593 13.3 73.0926 13.7307 72.1299 14.592C71.1673 15.4027 70.6859 16.5933 70.6859 18.164C70.6859 19.8867 71.4966 21.2293 73.1179 22.192C74.7393 23.1547 77.2726 24.1933 80.7179 25.308C84.1633 26.4733 86.9499 27.588 89.0779 28.652C91.2566 29.716 93.1313 31.2613 94.7019 33.288C96.2726 35.3147 97.0579 37.924 97.0579 41.116C97.0579 44.156 96.2726 46.9173 94.7019 49.4C93.1819 51.8827 90.9526 53.8587 88.0139 55.328C85.0753 56.7973 81.6046 57.532 77.6019 57.532Z" fill="#7785FC"/>
</g>
<defs>
<clipPath id="clip0_2_2">
<rect width="100" height="62" fill="white"/>
</clipPath>
</defs>
</svg>
